<?xml version="1.0" standalone="no"?>
<!DOCTYPE svg PUBLIC "-//W3C//DTD SVG 20010904//EN"
 "http://www.w3.org/TR/2001/REC-SVG-20010904/DTD/svg10.dtd">
<svg version="1.0" xmlns="http://www.w3.org/2000/svg"
 width="512.000000pt" height="512.000000pt" viewBox="0 0 512.000000 512.000000"
 preserveAspectRatio="xMidYMid meet">
<metadata>
Created by potrace 1.15, written by Peter Selinger 2001-2017
</metadata>
<g transform="translate(0.000000,512.000000) scale(0.100000,-0.100000)"
fill="#000000" stroke="none">
<path d="M1373 3717 c-650 -623 -1225 -1174 -1277 -1225 l-96 -92 0 -51 c0
-43 5 -55 29 -80 25 -24 37 -29 80 -29 l51 0 1197 1145 c658 630 1200 1145
1203 1145 3 0 545 -515 1203 -1145 l1197 -1145 51 0 c43 0 55 5 80 29 24 25
29 38 29 79 0 41 -5 55 -27 79 -46 48 -2526 2418 -2532 2420 -3 1 -538 -508
-1188 -1130z"/>
<path d="M3344 4462 c-45 -36 -56 -90 -29 -142 30 -58 42 -60 405 -60 l330 0
0 -341 0 -341 29 -29 c40 -39 115 -42 158 -5 l28 24 3 456 3 456 -453 0 c-414
0 -455 -2 -474 -18z"/>
<path d="M669 2321 l-29 -29 0 -1146 0 -1146 750 0 750 0 0 690 0 690 420 0
420 0 0 -690 0 -690 750 0 750 0 0 1091 0 1091 -29 29 c-25 24 -38 29 -78 29
-51 0 -82 -18 -102 -57 -8 -15 -11 -297 -11 -992 l0 -971 -530 0 -530 0 0 690
0 690 -640 0 -640 0 0 -690 0 -690 -530 0 -530 0 -2 1036 -3 1036 -33 29 c-46
41 -111 41 -153 0z"/>
</g>
</svg>
